<svg xmlns="http://www.w3.org/2000/svg" xmlns:xlink="http://www.w3.org/1999/xlink" width="131" zoomAndPan="magnify" viewBox="0 0 98.25 89.249998" height="119" preserveAspectRatio="xMidYMid meet" version="1.0"><defs><clipPath id="d0116a466b"><path d="M 0.0390625 0 L 97.21875 0 L 97.21875 87.910156 L 0.0390625 87.910156 Z M 0.0390625 0 " clip-rule="nonzero"/></clipPath><clipPath id="1d68e2fb2a"><path d="M 9.707031 0 L 87.527344 0 C 90.089844 0 92.550781 1.019531 94.363281 2.832031 C 96.175781 4.644531 97.195312 7.105469 97.195312 9.667969 L 97.195312 78.242188 C 97.195312 80.804688 96.175781 83.265625 94.363281 85.078125 C 92.550781 86.890625 90.089844 87.910156 87.527344 87.910156 L 9.707031 87.910156 C 7.140625 87.910156 4.683594 86.890625 2.871094 85.078125 C 1.054688 83.265625 0.0390625 80.804688 0.0390625 78.242188 L 0.0390625 9.667969 C 0.0390625 7.105469 1.054688 4.644531 2.871094 2.832031 C 4.683594 1.019531 7.140625 0 9.707031 0 Z M 9.707031 0 " clip-rule="nonzero"/></clipPath><clipPath id="26c9665398"><path d="M 0.0390625 0 L 97.46875 0 L 97.46875 87.761719 L 0.0390625 87.761719 Z M 0.0390625 0 " clip-rule="nonzero"/></clipPath><clipPath id="2b0e10cb3b"><path d="M 9.707031 0 L 87.519531 0 C 90.082031 0 92.542969 1.019531 94.355469 2.832031 C 96.167969 4.644531 97.1875 7.105469 97.1875 9.667969 L 97.1875 78.234375 C 97.1875 80.796875 96.167969 83.257812 94.355469 85.070312 C 92.542969 86.882812 90.082031 87.902344 87.519531 87.902344 L 9.707031 87.902344 C 7.144531 87.902344 4.683594 86.882812 2.871094 85.070312 C 1.058594 83.257812 0.0390625 80.796875 0.0390625 78.234375 L 0.0390625 9.667969 C 0.0390625 7.105469 1.058594 4.644531 2.871094 2.832031 C 4.683594 1.019531 7.144531 0 9.707031 0 Z M 9.707031 0 " clip-rule="nonzero"/></clipPath><clipPath id="6f0a660d69"><path d="M 6.640625 14 L 63 14 L 63 80.910156 L 6.640625 80.910156 Z M 6.640625 14 " clip-rule="nonzero"/></clipPath><clipPath id="3fca1fcb26"><path d="M 57 7.277344 L 90.683594 7.277344 L 90.683594 80.910156 L 57 80.910156 Z M 57 7.277344 " clip-rule="nonzero"/></clipPath></defs><g clip-path="url(#d0116a466b)"><g clip-path="url(#1d68e2fb2a)"><path fill="#21436d" d="M 0.0390625 0 L 97.21875 0 L 97.21875 87.910156 L 0.0390625 87.910156 Z M 0.0390625 0 " fill-opacity="1" fill-rule="nonzero"/></g></g><g clip-path="url(#26c9665398)"><g clip-path="url(#2b0e10cb3b)"><path stroke-linecap="butt" transform="matrix(0.74375, 0, 0, 0.74375, 0.0401058, 0.000000991667)" fill="none" stroke-linejoin="miter" d="M 12.997548 -0.00000133333 L 117.619403 -0.00000133333 C 121.064782 -0.00000133333 124.373605 1.370797 126.81058 3.807772 C 129.247555 6.244747 130.618354 9.553571 130.618354 12.998949 L 130.618354 105.189081 C 130.618354 108.634459 129.247555 111.943283 126.81058 114.380258 C 124.373605 116.817233 121.064782 118.188031 117.619403 118.188031 L 12.997548 118.188031 C 9.552169 118.188031 6.243346 116.817233 3.806371 114.380258 C 1.369396 111.943283 -0.00140272 108.634459 -0.00140272 105.189081 L -0.00140272 12.998949 C -0.00140272 9.553571 1.369396 6.244747 3.806371 3.807772 C 6.243346 1.370797 9.552169 -0.00000133333 12.997548 -0.00000133333 Z M 12.997548 -0.00000133333 " stroke="#21436d" stroke-width="6" stroke-opacity="1" stroke-miterlimit="4"/></g></g><g clip-path="url(#6f0a660d69)"><path fill="#ffffff" d="M 33 54.84375 L 57.046875 54.84375 C 58.058594 54.988281 58.296875 56.019531 57.828125 57.164062 C 56.835938 59.574219 54.292969 61.199219 51.703125 61.199219 L 38.339844 61.199219 C 35.753906 61.199219 33.207031 59.574219 32.222656 57.164062 C 31.746094 56.019531 31.980469 54.84375 33 54.84375 Z M 15.503906 52.34375 C 16.101562 52.347656 16.8125 52.417969 17.667969 52.570312 C 21.078125 53.15625 24.710938 54.011719 26.3125 58.0625 C 27.179688 60.25 26.554688 61.714844 24.078125 61.339844 C 21.5 60.957031 16.664062 60.347656 14.363281 59.507812 C 11.5625 58.480469 12.144531 55.359375 12.65625 53.785156 C 12.941406 52.898438 13.703125 52.328125 15.503906 52.34375 Z M 45.019531 14.878906 C 36.257812 14.878906 30.867188 15.011719 26.847656 16.089844 C 23.417969 17.007812 21.675781 19.785156 20.871094 21.867188 L 14.535156 38.386719 L 9.605469 38.386719 C 7.617188 38.382812 6.617188 39.328125 6.617188 40.933594 C 6.609375 43.078125 7.617188 45.074219 10.355469 46.488281 L 9.628906 47.785156 C 8.664062 49.625 7.960938 51.570312 7.960938 53.308594 L 7.960938 67.558594 C 7.960938 69.941406 9.613281 71.957031 11.527344 72.707031 L 11.527344 78.074219 C 11.527344 79.382812 12.574219 80.425781 13.875 80.425781 L 20.542969 80.425781 C 21.84375 80.425781 22.894531 79.386719 22.894531 78.074219 L 22.894531 73.035156 L 60.929688 73.035156 L 62.566406 40.894531 C 57.339844 41.261719 51.074219 41.625 45.023438 41.625 C 35.386719 41.625 24.828125 40.699219 19.609375 40.304688 L 25.699219 23.585938 C 26.03125 22.65625 26.921875 21.371094 28.175781 21.035156 C 31.105469 20.25 36.332031 20.003906 45.023438 20.003906 C 47.945312 20.003906 50.347656 20.042969 52.527344 20.113281 C 52.671875 18.363281 53.050781 16.640625 53.625 14.984375 C 51.167969 14.902344 48.335938 14.878906 45.019531 14.878906 Z M 45.019531 14.878906 " fill-opacity="1" fill-rule="evenodd"/></g><g clip-path="url(#3fca1fcb26)"><path fill="#ffffff" d="M 73.953125 67.90625 C 75.714844 67.90625 77.140625 69.332031 77.140625 71.09375 C 77.140625 72.855469 75.714844 74.28125 73.953125 74.28125 C 72.191406 74.28125 70.765625 72.855469 70.765625 71.09375 C 70.765625 69.332031 72.191406 67.90625 73.953125 67.90625 Z M 67.886719 7.429688 C 61.546875 9.921875 57.371094 16.042969 57.371094 22.859375 C 57.382812 29.359375 61.1875 35.25 67.101562 37.9375 L 65.335938 72.746094 C 65.101562 77.25 70.238281 80.21875 73.953125 80.21875 C 77.664062 80.21875 82.800781 77.25 82.570312 72.746094 L 80.796875 37.941406 C 86.71875 35.257812 90.523438 29.359375 90.535156 22.859375 C 90.523438 16.046875 86.355469 9.933594 80.019531 7.445312 L 80.019531 21.035156 L 73.953125 24.449219 L 67.886719 21.035156 Z M 67.886719 7.429688 " fill-opacity="1" fill-rule="evenodd"/></g></svg>