<svg xmlns="http://www.w3.org/2000/svg" xmlns:xlink="http://www.w3.org/1999/xlink" width="131" zoomAndPan="magnify" viewBox="0 0 98.25 89.249998" height="119" preserveAspectRatio="xMidYMid meet" version="1.0"><defs><clipPath id="5fdbf0dce8"><path d="M 0.0390625 0 L 97.21875 0 L 97.21875 87.910156 L 0.0390625 87.910156 Z M 0.0390625 0 " clip-rule="nonzero"/></clipPath><clipPath id="f8fb7c7f66"><path d="M 9.707031 0 L 87.527344 0 C 90.089844 0 92.550781 1.019531 94.363281 2.832031 C 96.175781 4.644531 97.195312 7.105469 97.195312 9.667969 L 97.195312 78.242188 C 97.195312 80.804688 96.175781 83.265625 94.363281 85.078125 C 92.550781 86.890625 90.089844 87.910156 87.527344 87.910156 L 9.707031 87.910156 C 7.140625 87.910156 4.683594 86.890625 2.871094 85.078125 C 1.054688 83.265625 0.0390625 80.804688 0.0390625 78.242188 L 0.0390625 9.667969 C 0.0390625 7.105469 1.054688 4.644531 2.871094 2.832031 C 4.683594 1.019531 7.140625 0 9.707031 0 Z M 9.707031 0 " clip-rule="nonzero"/></clipPath><clipPath id="a998cccd51"><path d="M 0.0390625 0 L 97.46875 0 L 97.46875 87.761719 L 0.0390625 87.761719 Z M 0.0390625 0 " clip-rule="nonzero"/></clipPath><clipPath id="ff2e396475"><path d="M 9.707031 0 L 87.519531 0 C 90.082031 0 92.542969 1.019531 94.355469 2.832031 C 96.167969 4.644531 97.1875 7.105469 97.1875 9.667969 L 97.1875 78.234375 C 97.1875 80.796875 96.167969 83.257812 94.355469 85.070312 C 92.542969 86.882812 90.082031 87.902344 87.519531 87.902344 L 9.707031 87.902344 C 7.144531 87.902344 4.683594 86.882812 2.871094 85.070312 C 1.058594 83.257812 0.0390625 80.796875 0.0390625 78.234375 L 0.0390625 9.667969 C 0.0390625 7.105469 1.058594 4.644531 2.871094 2.832031 C 4.683594 1.019531 7.144531 0 9.707031 0 Z M 9.707031 0 " clip-rule="nonzero"/></clipPath><clipPath id="22c4d5d6ff"><path d="M 58 14.535156 L 80 14.535156 L 80 29 L 58 29 Z M 58 14.535156 " clip-rule="nonzero"/></clipPath><clipPath id="2bde3a672b"><path d="M 7.683594 20.484375 L 7.683594 67.425781 C 7.683594 70.710938 10.347656 73.375 13.632812 73.375 L 83.597656 73.375 C 86.886719 73.375 89.550781 70.710938 89.550781 67.425781 L 89.550781 20.484375 C 89.550781 17.199219 86.886719 14.535156 83.597656 14.535156 L 13.632812 14.535156 C 10.347656 14.535156 7.683594 17.199219 7.683594 20.484375 Z M 7.683594 20.484375 " clip-rule="nonzero"/></clipPath><clipPath id="b768b7d457"><path d="M 64 34 L 82 34 L 82 37 L 64 37 Z M 64 34 " clip-rule="nonzero"/></clipPath><clipPath id="95c51224e4"><path d="M 7.683594 20.484375 L 7.683594 67.425781 C 7.683594 70.710938 10.347656 73.375 13.632812 73.375 L 83.597656 73.375 C 86.886719 73.375 89.550781 70.710938 89.550781 67.425781 L 89.550781 20.484375 C 89.550781 17.199219 86.886719 14.535156 83.597656 14.535156 L 13.632812 14.535156 C 10.347656 14.535156 7.683594 17.199219 7.683594 20.484375 Z M 7.683594 20.484375 " clip-rule="nonzero"/></clipPath><clipPath id="74def0c934"><path d="M 7.683594 20 L 49 20 L 49 69 L 7.683594 69 Z M 7.683594 20 " clip-rule="nonzero"/></clipPath><clipPath id="21abc9d82c"><path d="M 7.683594 20.484375 L 7.683594 67.425781 C 7.683594 70.710938 10.347656 73.375 13.632812 73.375 L 83.597656 73.375 C 86.886719 73.375 89.550781 70.710938 89.550781 67.425781 L 89.550781 20.484375 C 89.550781 17.199219 86.886719 14.535156 83.597656 14.535156 L 13.632812 14.535156 C 10.347656 14.535156 7.683594 17.199219 7.683594 20.484375 Z M 7.683594 20.484375 " clip-rule="nonzero"/></clipPath><clipPath id="a7d2c3fe8c"><path d="M 48 23 L 89.496094 23 L 89.496094 73.289062 L 48 73.289062 Z M 48 23 " clip-rule="nonzero"/></clipPath><clipPath id="41c744a157"><path d="M 7.683594 20.484375 L 7.683594 67.425781 C 7.683594 70.710938 10.347656 73.375 13.632812 73.375 L 83.597656 73.375 C 86.886719 73.375 89.550781 70.710938 89.550781 67.425781 L 89.550781 20.484375 C 89.550781 17.199219 86.886719 14.535156 83.597656 14.535156 L 13.632812 14.535156 C 10.347656 14.535156 7.683594 17.199219 7.683594 20.484375 Z M 7.683594 20.484375 " clip-rule="nonzero"/></clipPath><clipPath id="683aed7196"><path d="M 55 31 L 63 31 L 63 38 L 55 38 Z M 55 31 " clip-rule="nonzero"/></clipPath><clipPath id="0232d78b1d"><path d="M 7.683594 20.484375 L 7.683594 67.425781 C 7.683594 70.710938 10.347656 73.375 13.632812 73.375 L 83.597656 73.375 C 86.886719 73.375 89.550781 70.710938 89.550781 67.425781 L 89.550781 20.484375 C 89.550781 17.199219 86.886719 14.535156 83.597656 14.535156 L 13.632812 14.535156 C 10.347656 14.535156 7.683594 17.199219 7.683594 20.484375 Z M 7.683594 20.484375 " clip-rule="nonzero"/></clipPath><clipPath id="3620bd82a7"><path d="M 64 42 L 82 42 L 82 45 L 64 45 Z M 64 42 " clip-rule="nonzero"/></clipPath><clipPath id="e6377faef3"><path d="M 7.683594 20.484375 L 7.683594 67.425781 C 7.683594 70.710938 10.347656 73.375 13.632812 73.375 L 83.597656 73.375 C 86.886719 73.375 89.550781 70.710938 89.550781 67.425781 L 89.550781 20.484375 C 89.550781 17.199219 86.886719 14.535156 83.597656 14.535156 L 13.632812 14.535156 C 10.347656 14.535156 7.683594 17.199219 7.683594 20.484375 Z M 7.683594 20.484375 " clip-rule="nonzero"/></clipPath><clipPath id="f37ca0751d"><path d="M 55 39 L 63 39 L 63 46 L 55 46 Z M 55 39 " clip-rule="nonzero"/></clipPath><clipPath id="7c9152c207"><path d="M 7.683594 20.484375 L 7.683594 67.425781 C 7.683594 70.710938 10.347656 73.375 13.632812 73.375 L 83.597656 73.375 C 86.886719 73.375 89.550781 70.710938 89.550781 67.425781 L 89.550781 20.484375 C 89.550781 17.199219 86.886719 14.535156 83.597656 14.535156 L 13.632812 14.535156 C 10.347656 14.535156 7.683594 17.199219 7.683594 20.484375 Z M 7.683594 20.484375 " clip-rule="nonzero"/></clipPath><clipPath id="b3ba93c519"><path d="M 64 50 L 82 50 L 82 53 L 64 53 Z M 64 50 " clip-rule="nonzero"/></clipPath><clipPath id="d8f3bfd46c"><path d="M 7.683594 20.484375 L 7.683594 67.425781 C 7.683594 70.710938 10.347656 73.375 13.632812 73.375 L 83.597656 73.375 C 86.886719 73.375 89.550781 70.710938 89.550781 67.425781 L 89.550781 20.484375 C 89.550781 17.199219 86.886719 14.535156 83.597656 14.535156 L 13.632812 14.535156 C 10.347656 14.535156 7.683594 17.199219 7.683594 20.484375 Z M 7.683594 20.484375 " clip-rule="nonzero"/></clipPath><clipPath id="f413b54afd"><path d="M 55 47 L 63 47 L 63 54 L 55 54 Z M 55 47 " clip-rule="nonzero"/></clipPath><clipPath id="ef223009e3"><path d="M 7.683594 20.484375 L 7.683594 67.425781 C 7.683594 70.710938 10.347656 73.375 13.632812 73.375 L 83.597656 73.375 C 86.886719 73.375 89.550781 70.710938 89.550781 67.425781 L 89.550781 20.484375 C 89.550781 17.199219 86.886719 14.535156 83.597656 14.535156 L 13.632812 14.535156 C 10.347656 14.535156 7.683594 17.199219 7.683594 20.484375 Z M 7.683594 20.484375 " clip-rule="nonzero"/></clipPath><clipPath id="6d1c223f8a"><path d="M 64 58 L 82 58 L 82 61 L 64 61 Z M 64 58 " clip-rule="nonzero"/></clipPath><clipPath id="6f059c3278"><path d="M 7.683594 20.484375 L 7.683594 67.425781 C 7.683594 70.710938 10.347656 73.375 13.632812 73.375 L 83.597656 73.375 C 86.886719 73.375 89.550781 70.710938 89.550781 67.425781 L 89.550781 20.484375 C 89.550781 17.199219 86.886719 14.535156 83.597656 14.535156 L 13.632812 14.535156 C 10.347656 14.535156 7.683594 17.199219 7.683594 20.484375 Z M 7.683594 20.484375 " clip-rule="nonzero"/></clipPath><clipPath id="332341cbe2"><path d="M 55 55 L 63 55 L 63 62 L 55 62 Z M 55 55 " clip-rule="nonzero"/></clipPath><clipPath id="a538c2d188"><path d="M 7.683594 20.484375 L 7.683594 67.425781 C 7.683594 70.710938 10.347656 73.375 13.632812 73.375 L 83.597656 73.375 C 86.886719 73.375 89.550781 70.710938 89.550781 67.425781 L 89.550781 20.484375 C 89.550781 17.199219 86.886719 14.535156 83.597656 14.535156 L 13.632812 14.535156 C 10.347656 14.535156 7.683594 17.199219 7.683594 20.484375 Z M 7.683594 20.484375 " clip-rule="nonzero"/></clipPath></defs><g clip-path="url(#5fdbf0dce8)"><g clip-path="url(#f8fb7c7f66)"><path fill="#21436d" d="M 0.0390625 0 L 97.21875 0 L 97.21875 87.910156 L 0.0390625 87.910156 Z M 0.0390625 0 " fill-opacity="1" fill-rule="nonzero"/></g></g><g clip-path="url(#a998cccd51)"><g clip-path="url(#ff2e396475)"><path stroke-linecap="butt" transform="matrix(0.74375, 0, 0, 0.74375, 0.0401058, 0.000000991667)" fill="none" stroke-linejoin="miter" d="M 12.997548 -0.00000133333 L 117.619403 -0.00000133333 C 121.064782 -0.00000133333 124.373605 1.370797 126.81058 3.807772 C 129.247555 6.244747 130.618354 9.553571 130.618354 12.998949 L 130.618354 105.189081 C 130.618354 108.634459 129.247555 111.943283 126.81058 114.380258 C 124.373605 116.817233 121.064782 118.188031 117.619403 118.188031 L 12.997548 118.188031 C 9.552169 118.188031 6.243346 116.817233 3.806371 114.380258 C 1.369396 111.943283 -0.00140272 108.634459 -0.00140272 105.189081 L -0.00140272 12.998949 C -0.00140272 9.553571 1.369396 6.244747 3.806371 3.807772 C 6.243346 1.370797 9.552169 -0.00000133333 12.997548 -0.00000133333 Z M 12.997548 -0.00000133333 " stroke="#21436d" stroke-width="6" stroke-opacity="1" stroke-miterlimit="4"/></g></g><g clip-path="url(#22c4d5d6ff)"><g clip-path="url(#2bde3a672b)"><path fill="#ffffff" d="M 61.945312 29 L 76.144531 29 C 77.988281 29 79.484375 27.507812 79.484375 25.664062 L 79.484375 21.488281 L 73.84375 21.488281 C 74.058594 20.921875 74.191406 20.320312 74.191406 19.683594 C 74.191406 16.84375 71.882812 14.535156 69.042969 14.535156 C 66.207031 14.535156 63.894531 16.84375 63.894531 19.683594 C 63.894531 20.320312 64.03125 20.921875 64.242188 21.488281 L 58.605469 21.488281 L 58.605469 25.664062 C 58.605469 27.507812 60.097656 29 61.945312 29 Z M 69.042969 17.875 C 70.039062 17.875 70.851562 18.679688 70.851562 19.683594 C 70.851562 20.683594 70.039062 21.492188 69.042969 21.492188 C 68.046875 21.492188 67.234375 20.683594 67.234375 19.683594 C 67.238281 18.679688 68.046875 17.875 69.042969 17.875 Z M 69.042969 17.875 " fill-opacity="1" fill-rule="nonzero"/></g></g><g clip-path="url(#b768b7d457)"><g clip-path="url(#95c51224e4)"><path fill="#ffffff" d="M 64.859375 34.703125 L 81.285156 34.703125 L 81.285156 36.5625 L 64.859375 36.5625 Z M 64.859375 34.703125 " fill-opacity="1" fill-rule="nonzero"/></g></g><g clip-path="url(#74def0c934)"><g clip-path="url(#21abc9d82c)"><path fill="#ffffff" d="M 45.546875 59.492188 C 43.4375 59.492188 41.703125 59.492188 41.703125 59.492188 C 41.703125 59.492188 34.332031 59.492188 31.492188 59.492188 C 28.652344 59.492188 30.992188 56.234375 34.175781 56.234375 C 37.347656 56.234375 41.703125 56.234375 41.703125 56.234375 C 41.703125 56.234375 43.457031 56.234375 45.546875 56.234375 L 45.546875 52.582031 C 43.429688 52.582031 41.703125 52.582031 41.703125 52.582031 C 41.703125 52.582031 37.011719 52.582031 33.578125 52.582031 C 32.6875 52.582031 31.855469 52.109375 31.167969 51.425781 L 45.546875 51.425781 L 45.546875 49.796875 L 29.988281 49.796875 C 29.773438 49.386719 29.605469 48.957031 29.484375 48.539062 L 45.550781 48.539062 L 45.550781 46.914062 L 29.359375 46.914062 C 29.476562 46.226562 29.890625 45.757812 30.691406 45.757812 C 33.753906 45.757812 41.699219 45.757812 41.699219 45.757812 C 41.699219 45.757812 43.410156 45.757812 45.546875 45.757812 L 45.546875 39.214844 C 43.828125 39.25 42.464844 39.226562 41.699219 39.226562 C 38.730469 39.226562 26.984375 39.519531 19.476562 35.964844 C 19.425781 35.898438 19.371094 35.832031 19.320312 35.757812 C 20.761719 31.929688 24.660156 24.15625 29.308594 24.15625 L 46.070312 24.15625 C 46.636719 22.78125 47.65625 21.652344 48.925781 20.910156 L 29.308594 20.910156 C 22.355469 20.910156 17.953125 30.355469 16.476562 34.097656 C 15.5625 33.238281 14.238281 32.550781 12.339844 32.550781 C 12.339844 32.550781 10.941406 32.550781 9.847656 32.550781 C 8.753906 32.550781 7.859375 32.851562 7.859375 35.140625 C 7.859375 37.074219 8.578125 38.082031 12.042969 38.351562 C 10.671875 39.792969 9.574219 41.734375 9.574219 44.285156 C 9.574219 51.140625 9.574219 52.585938 9.574219 55.476562 C 9.574219 57.710938 9.804688 61.234375 13.421875 62.71875 L 13.421875 66.664062 C 13.421875 67.863281 14.390625 68.832031 15.589844 68.832031 L 24.4375 68.832031 C 25.632812 68.832031 26.601562 67.863281 26.601562 66.664062 L 26.601562 63.414062 C 33.941406 63.414062 41.707031 63.414062 41.707031 63.414062 C 41.707031 63.414062 43.230469 63.414062 45.554688 63.414062 L 45.554688 59.492188 Z M 23.425781 59.492188 C 22.171875 59.492188 19.925781 59.492188 18.832031 59.492188 C 17.253906 59.492188 14.761719 56.605469 16.601562 56.605469 C 17.652344 56.605469 18.957031 56.605469 20.589844 56.605469 C 22.09375 56.605469 23.164062 57.710938 23.761719 58.550781 C 24.136719 59.070312 24.304688 59.492188 23.425781 59.492188 Z M 25.265625 49.15625 C 23.09375 49.15625 18.746094 49.15625 16.390625 49.15625 C 13.675781 49.15625 13.519531 46.804688 15.003906 44.945312 C 16.324219 43.296875 19.898438 43.304688 22.191406 44.191406 C 27.082031 46.085938 27.441406 49.15625 25.265625 49.15625 Z M 25.265625 49.15625 " fill-opacity="1" fill-rule="nonzero"/></g></g><g clip-path="url(#a7d2c3fe8c)"><g clip-path="url(#41c744a157)"><path fill="#ffffff" d="M 85.75 23.128906 L 81.351562 23.128906 L 81.351562 25.90625 L 85.75 25.90625 C 86.207031 25.90625 86.582031 26.28125 86.582031 26.746094 L 86.582031 61.796875 L 79.464844 61.796875 C 78.085938 61.796875 76.964844 62.925781 76.964844 64.304688 L 76.964844 70.703125 L 52.339844 70.703125 C 51.878906 70.703125 51.503906 70.332031 51.503906 69.871094 L 51.503906 26.746094 C 51.503906 26.28125 51.878906 25.90625 52.339844 25.90625 L 56.742188 25.90625 L 56.742188 23.128906 L 52.339844 23.128906 C 50.34375 23.128906 48.722656 24.75 48.722656 26.746094 L 48.722656 69.871094 C 48.722656 71.863281 50.34375 73.488281 52.339844 73.488281 L 85.75 73.488281 C 87.742188 73.488281 89.367188 71.863281 89.367188 69.871094 L 89.367188 26.746094 C 89.367188 24.75 87.742188 23.128906 85.75 23.128906 Z M 79.746094 70.703125 L 79.746094 64.585938 L 86.585938 64.585938 Z M 79.746094 70.703125 " fill-opacity="1" fill-rule="nonzero"/></g></g><g clip-path="url(#683aed7196)"><g clip-path="url(#0232d78b1d)"><path fill="#ffffff" d="M 62.71875 32.003906 C 62.546875 31.8125 62.25 31.804688 62.066406 31.980469 L 58.679688 35.132812 L 56.347656 33.25 C 56.160156 33.101562 55.890625 33.089844 55.683594 33.238281 C 55.449219 33.414062 55.40625 33.753906 55.582031 33.992188 L 57.996094 37.1875 C 58.050781 37.253906 58.117188 37.324219 58.195312 37.375 C 58.609375 37.675781 59.1875 37.582031 59.484375 37.164062 L 59.496094 37.148438 L 62.757812 32.582031 C 62.886719 32.414062 62.875 32.167969 62.71875 32.003906 Z M 62.71875 32.003906 " fill-opacity="1" fill-rule="nonzero"/></g></g><g clip-path="url(#3620bd82a7)"><g clip-path="url(#e6377faef3)"><path fill="#ffffff" d="M 64.859375 42.523438 L 81.285156 42.523438 L 81.285156 44.382812 L 64.859375 44.382812 Z M 64.859375 42.523438 " fill-opacity="1" fill-rule="nonzero"/></g></g><g clip-path="url(#f37ca0751d)"><g clip-path="url(#7c9152c207)"><path fill="#ffffff" d="M 62.71875 39.820312 C 62.546875 39.636719 62.25 39.625 62.066406 39.796875 L 58.679688 42.953125 L 56.347656 41.074219 C 56.160156 40.917969 55.890625 40.910156 55.683594 41.058594 C 55.449219 41.238281 55.40625 41.570312 55.582031 41.8125 L 57.996094 45.003906 C 58.050781 45.078125 58.117188 45.144531 58.195312 45.199219 C 58.609375 45.496094 59.1875 45.398438 59.484375 44.984375 L 59.496094 44.96875 L 62.757812 40.40625 C 62.886719 40.230469 62.875 39.988281 62.71875 39.820312 Z M 62.71875 39.820312 " fill-opacity="1" fill-rule="nonzero"/></g></g><g clip-path="url(#b3ba93c519)"><g clip-path="url(#d8f3bfd46c)"><path fill="#ffffff" d="M 64.859375 50.34375 L 81.285156 50.34375 L 81.285156 52.199219 L 64.859375 52.199219 Z M 64.859375 50.34375 " fill-opacity="1" fill-rule="nonzero"/></g></g><g clip-path="url(#f413b54afd)"><g clip-path="url(#ef223009e3)"><path fill="#ffffff" d="M 62.71875 47.640625 C 62.546875 47.453125 62.25 47.441406 62.066406 47.617188 L 58.679688 50.769531 L 56.347656 48.890625 C 56.160156 48.738281 55.890625 48.730469 55.683594 48.875 C 55.449219 49.054688 55.40625 49.390625 55.582031 49.628906 L 57.996094 52.820312 C 58.050781 52.894531 58.117188 52.960938 58.195312 53.015625 C 58.609375 53.3125 59.1875 53.21875 59.484375 52.800781 L 59.496094 52.785156 L 62.757812 48.222656 C 62.886719 48.046875 62.875 47.808594 62.71875 47.640625 Z M 62.71875 47.640625 " fill-opacity="1" fill-rule="nonzero"/></g></g><g clip-path="url(#6d1c223f8a)"><g clip-path="url(#6f059c3278)"><path fill="#ffffff" d="M 64.859375 58.160156 L 81.285156 58.160156 L 81.285156 60.019531 L 64.859375 60.019531 Z M 64.859375 58.160156 " fill-opacity="1" fill-rule="nonzero"/></g></g><g clip-path="url(#332341cbe2)"><g clip-path="url(#a538c2d188)"><path fill="#ffffff" d="M 62.066406 55.433594 L 58.679688 58.589844 L 56.347656 56.710938 C 56.160156 56.558594 55.890625 56.546875 55.683594 56.699219 C 55.449219 56.875 55.40625 57.210938 55.582031 57.449219 L 57.996094 60.640625 C 58.050781 60.714844 58.117188 60.78125 58.195312 60.835938 C 58.609375 61.132812 59.1875 61.039062 59.484375 60.625 L 59.496094 60.605469 L 62.757812 56.042969 C 62.882812 55.867188 62.875 55.625 62.71875 55.460938 C 62.546875 55.273438 62.25 55.261719 62.066406 55.433594 Z M 62.066406 55.433594 " fill-opacity="1" fill-rule="nonzero"/></g></g></svg>