<svg xmlns="http://www.w3.org/2000/svg" xmlns:xlink="http://www.w3.org/1999/xlink" width="131" zoomAndPan="magnify" viewBox="0 0 98.25 89.249998" height="119" preserveAspectRatio="xMidYMid meet" version="1.0"><defs><clipPath id="32ba1d685b"><path d="M 0.0390625 0 L 97.21875 0 L 97.21875 87.910156 L 0.0390625 87.910156 Z M 0.0390625 0 " clip-rule="nonzero"/></clipPath><clipPath id="696fc82428"><path d="M 9.707031 0 L 87.527344 0 C 90.089844 0 92.550781 1.019531 94.363281 2.832031 C 96.175781 4.644531 97.195312 7.105469 97.195312 9.667969 L 97.195312 78.242188 C 97.195312 80.804688 96.175781 83.265625 94.363281 85.078125 C 92.550781 86.890625 90.089844 87.910156 87.527344 87.910156 L 9.707031 87.910156 C 7.140625 87.910156 4.683594 86.890625 2.871094 85.078125 C 1.054688 83.265625 0.0390625 80.804688 0.0390625 78.242188 L 0.0390625 9.667969 C 0.0390625 7.105469 1.054688 4.644531 2.871094 2.832031 C 4.683594 1.019531 7.140625 0 9.707031 0 Z M 9.707031 0 " clip-rule="nonzero"/></clipPath><clipPath id="6261880309"><path d="M 0.0390625 0 L 97.46875 0 L 97.46875 87.761719 L 0.0390625 87.761719 Z M 0.0390625 0 " clip-rule="nonzero"/></clipPath><clipPath id="2a8e3491dc"><path d="M 9.707031 0 L 87.519531 0 C 90.082031 0 92.542969 1.019531 94.355469 2.832031 C 96.167969 4.644531 97.1875 7.105469 97.1875 9.667969 L 97.1875 78.234375 C 97.1875 80.796875 96.167969 83.257812 94.355469 85.070312 C 92.542969 86.882812 90.082031 87.902344 87.519531 87.902344 L 9.707031 87.902344 C 7.144531 87.902344 4.683594 86.882812 2.871094 85.070312 C 1.058594 83.257812 0.0390625 80.796875 0.0390625 78.234375 L 0.0390625 9.667969 C 0.0390625 7.105469 1.058594 4.644531 2.871094 2.832031 C 4.683594 1.019531 7.144531 0 9.707031 0 Z M 9.707031 0 " clip-rule="nonzero"/></clipPath><clipPath id="9e6000d1ec"><path d="M 10.398438 16 L 62 16 L 62 69 L 10.398438 69 Z M 10.398438 16 " clip-rule="nonzero"/></clipPath><clipPath id="c248f1bc03"><path d="M 65 11.996094 L 87 11.996094 L 87 75 L 65 75 Z M 65 11.996094 " clip-rule="nonzero"/></clipPath><clipPath id="3bfc5c763e"><path d="M 45 35 L 64 35 L 64 75.957031 L 45 75.957031 Z M 45 35 " clip-rule="nonzero"/></clipPath></defs><g clip-path="url(#32ba1d685b)"><g clip-path="url(#696fc82428)"><path fill="#21436d" d="M 0.0390625 0 L 97.21875 0 L 97.21875 87.910156 L 0.0390625 87.910156 Z M 0.0390625 0 " fill-opacity="1" fill-rule="nonzero"/></g></g><g clip-path="url(#6261880309)"><g clip-path="url(#2a8e3491dc)"><path stroke-linecap="butt" transform="matrix(0.74375, 0, 0, 0.74375, 0.0401058, 0.000000991667)" fill="none" stroke-linejoin="miter" d="M 12.997548 -0.00000133333 L 117.619403 -0.00000133333 C 121.064782 -0.00000133333 124.373605 1.370797 126.81058 3.807772 C 129.247555 6.244747 130.618354 9.553571 130.618354 12.998949 L 130.618354 105.189081 C 130.618354 108.634459 129.247555 111.943283 126.81058 114.380258 C 124.373605 116.817233 121.064782 118.188031 117.619403 118.188031 L 12.997548 118.188031 C 9.552169 118.188031 6.243346 116.817233 3.806371 114.380258 C 1.369396 111.943283 -0.00140272 108.634459 -0.00140272 105.189081 L -0.00140272 12.998949 C -0.00140272 9.553571 1.369396 6.244747 3.806371 3.807772 C 6.243346 1.370797 9.552169 -0.00000133333 12.997548 -0.00000133333 Z M 12.997548 -0.00000133333 " stroke="#21436d" stroke-width="6" stroke-opacity="1" stroke-miterlimit="4"/></g></g><g clip-path="url(#9e6000d1ec)"><path fill="#ffffff" d="M 44.683594 62.984375 C 44.503906 62.390625 43.789062 62.03125 43.191406 62.210938 C 42.539062 62.390625 42.238281 63.105469 42.417969 63.699219 L 42.953125 65.367188 C 41.347656 65.785156 39.679688 66.082031 37.890625 66.140625 L 37.890625 64.414062 C 37.890625 63.757812 37.355469 63.222656 36.699219 63.222656 C 36.042969 63.222656 35.507812 63.757812 35.507812 64.414062 L 35.507812 66.140625 C 33.78125 66.082031 32.113281 65.785156 30.503906 65.367188 L 31.042969 63.699219 C 31.21875 63.042969 30.921875 62.390625 30.265625 62.210938 C 29.671875 62.03125 28.957031 62.328125 28.777344 62.984375 L 28.242188 64.652344 C 26.632812 64.058594 25.144531 63.28125 23.714844 62.328125 L 24.726562 60.898438 C 25.085938 60.363281 25.023438 59.648438 24.488281 59.230469 C 23.953125 58.875 23.238281 58.933594 22.820312 59.46875 L 21.808594 60.898438 C 20.496094 59.828125 19.304688 58.636719 18.234375 57.328125 L 19.664062 56.3125 C 20.199219 55.957031 20.320312 55.183594 19.902344 54.644531 C 19.542969 54.109375 18.769531 53.992188 18.234375 54.40625 L 16.804688 55.421875 C 15.851562 53.992188 15.078125 52.5 14.480469 50.894531 L 16.148438 50.355469 C 16.804688 50.179688 17.101562 49.464844 16.921875 48.867188 C 16.746094 48.273438 16.03125 47.914062 15.433594 48.09375 L 13.765625 48.628906 C 13.347656 47.019531 13.050781 45.351562 12.992188 43.625 L 14.660156 43.566406 C 15.316406 43.566406 15.851562 43.03125 15.851562 42.375 C 15.851562 41.71875 15.316406 41.183594 14.660156 41.183594 L 12.933594 41.183594 C 12.992188 39.457031 13.289062 37.789062 13.707031 36.121094 L 15.375 36.65625 C 15.492188 36.714844 15.613281 36.714844 15.730469 36.714844 C 16.207031 36.714844 16.683594 36.417969 16.863281 35.882812 C 17.042969 35.226562 16.746094 34.570312 16.089844 34.394531 L 14.421875 33.855469 C 15.015625 32.25 15.792969 30.757812 16.746094 29.328125 L 18.175781 30.34375 C 18.414062 30.519531 18.652344 30.582031 18.890625 30.582031 C 19.246094 30.582031 19.605469 30.402344 19.84375 30.105469 C 20.199219 29.566406 20.140625 28.851562 19.605469 28.4375 L 18.175781 27.421875 C 19.246094 26.113281 20.4375 24.863281 21.808594 23.789062 L 22.820312 25.21875 C 23.058594 25.515625 23.417969 25.695312 23.773438 25.695312 C 24.011719 25.695312 24.25 25.636719 24.488281 25.457031 C 25.023438 25.101562 25.144531 24.324219 24.726562 23.789062 L 23.714844 22.359375 C 25.144531 21.40625 26.632812 20.632812 28.242188 20.035156 L 28.777344 21.703125 C 28.957031 22.179688 29.433594 22.539062 29.910156 22.539062 C 30.027344 22.539062 30.148438 22.539062 30.265625 22.480469 C 30.921875 22.300781 31.21875 21.585938 31.042969 20.988281 L 30.503906 19.320312 C 32.113281 18.90625 33.78125 18.605469 35.566406 18.546875 L 35.566406 20.335938 C 35.566406 20.988281 36.105469 21.527344 36.757812 21.527344 C 37.414062 21.527344 37.949219 20.988281 37.949219 20.335938 L 37.949219 18.605469 C 39.679688 18.667969 41.347656 18.964844 42.953125 19.382812 L 42.417969 21.050781 C 42.238281 21.703125 42.539062 22.359375 43.191406 22.539062 C 43.3125 22.597656 43.429688 22.597656 43.550781 22.597656 C 44.027344 22.597656 44.503906 22.300781 44.683594 21.765625 L 45.21875 20.097656 C 46.828125 20.691406 48.316406 21.464844 49.746094 22.417969 L 48.734375 23.847656 C 48.375 24.386719 48.433594 25.101562 48.972656 25.515625 C 49.210938 25.695312 49.449219 25.753906 49.6875 25.753906 C 50.042969 25.753906 50.402344 25.578125 50.640625 25.277344 L 51.652344 23.847656 C 52.960938 24.921875 54.152344 26.113281 55.226562 27.421875 L 53.796875 28.4375 C 53.261719 28.792969 53.140625 29.566406 53.558594 30.105469 C 53.796875 30.402344 54.152344 30.582031 54.511719 30.582031 C 54.75 30.582031 54.988281 30.519531 55.226562 30.34375 L 56.65625 29.328125 C 57.488281 30.582031 58.203125 31.890625 58.738281 33.261719 C 58.917969 33.320312 59.097656 33.378906 59.214844 33.441406 C 60.167969 33.855469 61.0625 34.453125 61.898438 35.109375 C 61.0625 32.1875 59.753906 29.507812 58.023438 27.066406 C 57.964844 27.007812 57.964844 26.945312 57.90625 26.886719 C 57.847656 26.828125 57.847656 26.769531 57.785156 26.769531 C 56.238281 24.683594 54.390625 22.777344 52.246094 21.226562 C 52.1875 21.167969 52.1875 21.167969 52.128906 21.109375 C 52.070312 21.050781 52.007812 21.050781 52.007812 21.050781 C 49.863281 19.5 47.421875 18.25 44.859375 17.414062 C 44.859375 17.414062 44.859375 17.414062 44.800781 17.414062 C 44.800781 17.414062 44.800781 17.414062 44.742188 17.414062 C 42.238281 16.640625 39.5 16.164062 36.699219 16.164062 C 33.898438 16.164062 31.160156 16.640625 28.597656 17.414062 C 28.597656 17.414062 28.597656 17.414062 28.539062 17.414062 C 28.539062 17.414062 28.539062 17.414062 28.480469 17.414062 C 25.917969 18.25 23.535156 19.5 21.390625 21.050781 C 21.332031 21.050781 21.273438 21.109375 21.273438 21.109375 C 21.210938 21.109375 21.210938 21.167969 21.152344 21.226562 C 19.007812 22.777344 17.101562 24.683594 15.554688 26.828125 C 15.492188 26.886719 15.492188 26.886719 15.433594 26.945312 C 15.375 27.007812 15.375 27.066406 15.375 27.066406 C 13.886719 29.269531 12.632812 31.652344 11.800781 34.214844 C 11.800781 34.214844 11.800781 34.214844 11.800781 34.273438 C 11.800781 34.273438 11.800781 34.273438 11.800781 34.332031 C 10.964844 36.835938 10.492188 39.574219 10.492188 42.375 C 10.492188 45.175781 10.964844 47.914062 11.742188 50.417969 C 11.742188 50.417969 11.742188 50.417969 11.742188 50.476562 C 12.574219 53.039062 13.824219 55.480469 15.375 57.625 C 15.375 57.683594 15.433594 57.742188 15.433594 57.742188 C 15.433594 57.800781 15.492188 57.800781 15.492188 57.800781 C 17.042969 59.945312 18.949219 61.851562 21.09375 63.402344 C 21.152344 63.460938 21.152344 63.460938 21.210938 63.519531 C 21.210938 63.519531 21.273438 63.519531 21.332031 63.582031 C 23.476562 65.128906 25.917969 66.378906 28.539062 67.273438 C 28.539062 67.273438 28.539062 67.273438 28.597656 67.273438 C 31.160156 68.109375 33.839844 68.523438 36.640625 68.523438 C 39.441406 68.523438 42.121094 68.046875 44.683594 67.273438 C 44.683594 67.273438 44.742188 67.273438 44.742188 67.273438 C 44.800781 67.273438 44.800781 67.214844 44.859375 67.214844 C 45.992188 66.855469 47.125 66.378906 48.195312 65.84375 L 48.257812 63.105469 C 47.242188 63.699219 46.171875 64.175781 45.097656 64.59375 Z M 44.683594 62.984375 " fill-opacity="1" fill-rule="nonzero"/></g><path fill="#ffffff" d="M 36.699219 39.394531 C 35.03125 39.394531 33.722656 40.707031 33.722656 42.375 C 33.722656 44.042969 35.03125 45.351562 36.699219 45.351562 C 38.367188 45.351562 39.679688 44.042969 39.679688 42.375 C 39.679688 40.707031 38.367188 39.394531 36.699219 39.394531 Z M 36.699219 42.96875 C 36.34375 42.96875 36.105469 42.730469 36.105469 42.375 C 36.105469 42.015625 36.34375 41.777344 36.699219 41.777344 C 37.058594 41.777344 37.296875 42.015625 37.296875 42.375 C 37.296875 42.730469 37.058594 42.96875 36.699219 42.96875 Z M 36.699219 42.96875 " fill-opacity="1" fill-rule="nonzero"/><path fill="#ffffff" d="M 76.015625 63.222656 C 74.050781 63.222656 72.441406 64.832031 72.441406 66.796875 C 72.441406 68.761719 74.050781 70.371094 76.015625 70.371094 C 77.980469 70.371094 79.589844 68.761719 79.589844 66.796875 C 79.589844 64.832031 77.980469 63.222656 76.015625 63.222656 Z M 76.015625 67.988281 C 75.359375 67.988281 74.824219 67.453125 74.824219 66.796875 C 74.824219 66.140625 75.359375 65.605469 76.015625 65.605469 C 76.667969 65.605469 77.207031 66.140625 77.207031 66.796875 C 77.207031 67.453125 76.667969 67.988281 76.015625 67.988281 Z M 76.015625 67.988281 " fill-opacity="1" fill-rule="nonzero"/><g clip-path="url(#c248f1bc03)"><path fill="#ffffff" d="M 81.972656 25.101562 L 81.613281 25.101562 C 82.925781 23.730469 83.757812 21.824219 83.757812 19.738281 C 83.757812 15.449219 80.304688 11.996094 76.015625 11.996094 C 71.726562 11.996094 68.269531 15.449219 68.269531 19.738281 C 68.269531 21.824219 69.105469 23.730469 70.414062 25.101562 L 70.058594 25.101562 C 67.4375 25.101562 65.292969 27.246094 65.292969 29.867188 L 65.292969 37.011719 C 65.292969 37.667969 65.828125 38.203125 66.484375 38.203125 L 70.652344 38.203125 L 70.652344 44.28125 C 69.164062 44.9375 68.09375 45.890625 68.210938 47.617188 C 68.269531 48.210938 68.808594 48.6875 69.402344 48.6875 C 69.460938 48.6875 69.460938 48.6875 69.523438 48.6875 C 70.175781 48.628906 70.652344 48.09375 70.59375 47.4375 C 70.59375 47.320312 70.59375 47.257812 70.652344 47.199219 L 70.652344 50.296875 C 69.164062 50.953125 68.09375 51.90625 68.210938 53.632812 C 68.269531 54.230469 68.808594 54.707031 69.402344 54.707031 C 69.460938 54.707031 69.460938 54.707031 69.523438 54.707031 C 70.175781 54.644531 70.652344 54.109375 70.59375 53.453125 C 70.59375 53.335938 70.59375 53.277344 70.652344 53.214844 L 70.652344 56.3125 C 69.164062 56.96875 68.09375 57.921875 68.210938 59.648438 C 68.269531 60.246094 68.808594 60.722656 69.402344 60.722656 C 69.460938 60.722656 69.460938 60.722656 69.523438 60.722656 C 70.175781 60.660156 70.652344 60.125 70.59375 59.46875 C 70.59375 59.351562 70.59375 59.292969 70.652344 59.230469 L 70.652344 62.210938 C 70.652344 62.210938 70.652344 62.269531 70.652344 62.269531 C 69.523438 63.519531 68.867188 65.1875 68.867188 66.976562 C 68.867188 70.90625 72.082031 74.125 76.015625 74.125 C 79.945312 74.125 83.164062 70.90625 83.164062 66.976562 C 83.164062 64.890625 82.210938 62.984375 80.78125 61.675781 L 80.78125 56.195312 C 81.375 55.898438 81.851562 55.480469 82.148438 55.003906 C 82.449219 54.527344 82.746094 53.753906 82.449219 52.738281 C 82.269531 52.085938 81.613281 51.726562 80.957031 51.90625 C 80.898438 51.90625 80.839844 51.964844 80.71875 51.964844 L 80.71875 50.238281 C 81.316406 49.941406 81.792969 49.523438 82.089844 49.046875 C 82.386719 48.570312 82.6875 47.796875 82.386719 46.78125 C 82.210938 46.128906 81.554688 45.769531 80.898438 45.949219 C 80.839844 45.949219 80.78125 46.007812 80.660156 46.007812 L 80.660156 44.28125 C 81.257812 43.984375 81.734375 43.566406 82.03125 43.089844 C 82.328125 42.613281 82.625 41.839844 82.328125 40.824219 C 82.148438 40.171875 81.496094 39.8125 80.839844 39.992188 C 80.78125 39.992188 80.71875 40.050781 80.601562 40.050781 L 80.601562 38.203125 L 85.367188 38.203125 C 86.023438 38.203125 86.558594 37.667969 86.558594 37.011719 L 86.558594 29.867188 C 86.738281 27.246094 84.59375 25.101562 81.972656 25.101562 Z M 70.652344 19.738281 C 70.652344 16.761719 73.035156 14.378906 76.015625 14.378906 C 78.992188 14.378906 81.375 16.761719 81.375 19.738281 C 81.375 22.71875 78.992188 25.101562 76.015625 25.101562 C 73.035156 25.101562 70.652344 22.71875 70.652344 19.738281 Z M 76.015625 71.5625 C 73.394531 71.5625 71.25 69.417969 71.25 66.796875 C 71.25 64.175781 73.394531 62.03125 76.015625 62.03125 C 78.636719 62.03125 80.78125 64.175781 80.78125 66.796875 C 80.78125 69.417969 78.636719 71.5625 76.015625 71.5625 Z M 78.398438 60.066406 C 77.621094 59.828125 76.847656 59.648438 76.015625 59.648438 C 74.941406 59.648438 73.929688 59.886719 73.035156 60.304688 L 73.035156 57.921875 C 73.929688 57.683594 74.882812 57.5625 75.714844 57.386719 C 76.609375 57.207031 77.5625 57.089844 78.398438 56.851562 Z M 78.398438 54.40625 C 77.445312 54.644531 76.3125 54.882812 75.300781 55.0625 C 74.527344 55.183594 73.75 55.359375 73.035156 55.480469 L 73.035156 51.964844 C 73.929688 51.726562 74.882812 51.609375 75.714844 51.429688 C 76.609375 51.25 77.5625 51.132812 78.398438 50.894531 Z M 78.398438 48.449219 C 77.445312 48.6875 76.3125 48.925781 75.300781 49.105469 C 74.527344 49.226562 73.75 49.402344 73.035156 49.523438 L 73.035156 46.007812 C 73.929688 45.769531 74.882812 45.652344 75.714844 45.472656 C 76.609375 45.292969 77.5625 45.175781 78.398438 44.9375 Z M 78.398438 42.492188 C 77.445312 42.730469 76.3125 42.96875 75.300781 43.148438 C 74.527344 43.269531 73.75 43.445312 73.035156 43.566406 L 73.035156 38.203125 L 78.398438 38.203125 Z M 84.355469 35.824219 L 67.675781 35.824219 L 67.675781 34.632812 L 76.015625 34.632812 C 76.667969 34.632812 77.207031 34.09375 77.207031 33.441406 C 77.207031 32.785156 76.667969 32.25 76.015625 32.25 L 67.675781 32.25 L 67.675781 29.867188 C 67.675781 28.554688 68.746094 27.484375 70.058594 27.484375 L 81.972656 27.484375 C 83.28125 27.484375 84.355469 28.554688 84.355469 29.867188 Z M 84.355469 35.824219 " fill-opacity="1" fill-rule="nonzero"/></g><path fill="#ffffff" d="M 80.78125 32.25 L 79.589844 32.25 C 78.933594 32.25 78.398438 32.785156 78.398438 33.441406 C 78.398438 34.09375 78.933594 34.632812 79.589844 34.632812 L 80.78125 34.632812 C 81.433594 34.632812 81.972656 34.09375 81.972656 33.441406 C 81.972656 32.785156 81.433594 32.25 80.78125 32.25 Z M 80.78125 32.25 " fill-opacity="1" fill-rule="nonzero"/><path fill="#ffffff" d="M 76.015625 16.164062 C 74.050781 16.164062 72.441406 17.773438 72.441406 19.738281 C 72.441406 21.703125 74.050781 23.3125 76.015625 23.3125 C 77.980469 23.3125 79.589844 21.703125 79.589844 19.738281 C 79.589844 17.773438 77.980469 16.164062 76.015625 16.164062 Z M 76.015625 20.929688 C 75.359375 20.929688 74.824219 20.394531 74.824219 19.738281 C 74.824219 19.082031 75.359375 18.546875 76.015625 18.546875 C 76.667969 18.546875 77.207031 19.082031 77.207031 19.738281 C 77.207031 20.394531 76.667969 20.929688 76.015625 20.929688 Z M 76.015625 20.929688 " fill-opacity="1" fill-rule="nonzero"/><path fill="#ffffff" d="M 47.480469 34.988281 C 48.078125 34.511719 48.792969 34.09375 49.507812 33.679688 C 46.707031 29.566406 42 26.886719 36.699219 26.886719 C 28.183594 26.886719 21.210938 33.855469 21.210938 42.375 C 21.210938 50.894531 28.183594 57.863281 36.699219 57.863281 C 41.167969 57.863281 45.160156 55.957031 48.019531 52.976562 C 47.71875 52.800781 47.480469 52.5625 47.183594 52.324219 C 47.125 52.261719 47.066406 52.203125 47.003906 52.144531 C 46.765625 51.90625 46.46875 51.667969 46.230469 51.429688 C 45.097656 50.179688 44.207031 48.6875 43.730469 47.019531 L 42.179688 44.875 C 42.359375 44.519531 42.476562 44.101562 42.597656 43.683594 L 43.3125 43.445312 C 43.371094 42.554688 43.492188 41.660156 43.730469 40.824219 L 41.167969 41.660156 C 40.691406 41.839844 40.394531 42.253906 40.332031 42.730469 C 40.273438 43.328125 40.09375 43.863281 39.796875 44.339844 C 39.558594 44.757812 39.558594 45.292969 39.855469 45.652344 L 44.621094 52.203125 L 43.667969 52.917969 L 38.902344 46.367188 C 38.664062 46.066406 38.308594 45.890625 37.949219 45.890625 C 37.832031 45.890625 37.773438 45.890625 37.652344 45.949219 C 37.058594 46.066406 36.460938 46.066406 35.925781 45.949219 C 35.449219 45.828125 34.972656 46.007812 34.675781 46.425781 L 29.910156 52.976562 L 28.957031 52.261719 L 33.722656 45.710938 C 34.019531 45.292969 34.019531 44.816406 33.78125 44.398438 C 33.484375 43.921875 33.304688 43.328125 33.246094 42.792969 C 33.183594 42.316406 32.886719 41.898438 32.410156 41.71875 L 24.726562 39.21875 L 25.085938 38.085938 L 32.769531 40.585938 C 33.246094 40.765625 33.722656 40.585938 34.019531 40.230469 C 34.375 39.753906 34.851562 39.457031 35.390625 39.21875 C 35.867188 39.039062 36.164062 38.621094 36.164062 38.085938 L 36.164062 29.867188 L 37.355469 29.867188 L 37.355469 37.964844 C 37.355469 38.441406 37.652344 38.917969 38.128906 39.097656 C 38.664062 39.335938 39.140625 39.632812 39.5 40.109375 C 39.796875 40.46875 40.332031 40.648438 40.75 40.46875 L 44.207031 39.335938 C 44.683594 38.144531 45.398438 37.074219 46.289062 36.179688 L 40.75 37.964844 C 40.453125 37.667969 40.09375 37.429688 39.738281 37.25 L 39.738281 29.628906 C 42.894531 30.34375 45.695312 32.308594 47.480469 34.988281 Z M 36.105469 48.273438 C 36.519531 48.332031 36.9375 48.332031 37.355469 48.273438 L 41.824219 54.40625 C 40.214844 55.121094 38.488281 55.480469 36.699219 55.480469 C 34.914062 55.480469 33.183594 55.121094 31.636719 54.46875 Z M 30.863281 43.625 C 30.921875 44.042969 31.101562 44.460938 31.28125 44.816406 L 26.8125 50.953125 C 24.785156 48.628906 23.59375 45.652344 23.59375 42.375 C 23.59375 42.015625 23.59375 41.660156 23.65625 41.242188 Z M 32.707031 37.964844 L 25.5 35.644531 C 27.289062 32.664062 30.265625 30.460938 33.722656 29.6875 L 33.722656 37.3125 C 33.363281 37.429688 33.007812 37.667969 32.707031 37.964844 Z M 32.707031 37.964844 " fill-opacity="1" fill-rule="nonzero"/><g clip-path="url(#3bfc5c763e)"><path fill="#ffffff" d="M 58.261719 35.644531 C 57.90625 35.464844 57.488281 35.523438 57.132812 35.703125 C 56.773438 35.941406 56.59375 36.296875 56.59375 36.714844 L 56.59375 42.136719 L 54.570312 43.328125 L 52.546875 42.195312 L 52.546875 36.773438 C 52.546875 36.359375 52.367188 36 52.007812 35.761719 C 51.652344 35.523438 51.234375 35.523438 50.878906 35.703125 C 47.660156 37.132812 45.636719 40.347656 45.636719 43.804688 C 45.636719 47.378906 47.78125 50.59375 51.054688 51.964844 L 50.519531 73.46875 C 50.519531 74.125 50.757812 74.71875 51.175781 75.195312 C 51.652344 75.671875 52.246094 75.910156 52.902344 75.910156 L 56.355469 75.910156 C 57.011719 75.910156 57.609375 75.671875 58.085938 75.195312 C 58.5625 74.71875 58.800781 74.125 58.738281 73.46875 L 58.144531 51.90625 C 61.421875 50.535156 63.566406 47.320312 63.566406 43.746094 C 63.503906 40.289062 61.421875 37.074219 58.261719 35.644531 Z M 56.535156 50 C 56 50.179688 55.703125 50.65625 55.703125 51.191406 L 56.296875 73.527344 L 52.84375 73.527344 L 53.4375 51.191406 C 53.4375 50.65625 53.140625 50.179688 52.605469 50 C 49.863281 49.164062 48.019531 46.664062 48.019531 43.804688 C 48.019531 41.957031 48.851562 40.171875 50.222656 38.980469 L 50.222656 42.910156 C 50.222656 43.328125 50.460938 43.746094 50.816406 43.921875 L 54.035156 45.710938 C 54.390625 45.890625 54.867188 45.890625 55.226562 45.710938 L 58.441406 43.921875 C 58.800781 43.683594 59.039062 43.328125 59.039062 42.910156 L 59.039062 38.980469 C 60.40625 40.171875 61.242188 41.957031 61.242188 43.804688 C 61.121094 46.605469 59.277344 49.105469 56.535156 50 Z M 56.535156 50 " fill-opacity="1" fill-rule="nonzero"/></g></svg>