<svg xmlns="http://www.w3.org/2000/svg" xmlns:xlink="http://www.w3.org/1999/xlink" zoomAndPan="magnify" preserveAspectRatio="xMidYMid meet" version="1.0" viewBox="27.71 47.38 180.88 49.55"><defs><g/></defs><g fill="#000000" fill-opacity="1"><g transform="translate(27.757799, 96.625364)"><g><path d="M 6.171875 -9.296875 L 9.671875 0 L 7.09375 0 L 6.484375 -1.609375 L 3.15625 -1.609375 L 2.515625 0 L -0.046875 0 L 3.53125 -9.296875 Z M 3.828125 -3.46875 L 5.828125 -3.46875 L 4.84375 -6.421875 L 4.8125 -6.421875 Z M 3.828125 -3.46875 "/></g></g></g><g fill="#000000" fill-opacity="1"><g transform="translate(40.043219, 96.625364)"><g><path d="M 3.15625 -9.296875 L 3.15625 -4.3125 C 3.15625 -3.664062 3.207031 -3.1875 3.3125 -2.875 C 3.414062 -2.5625 3.582031 -2.316406 3.8125 -2.140625 C 4.050781 -1.960938 4.378906 -1.875 4.796875 -1.875 C 5.347656 -1.875 5.757812 -2.046875 6.03125 -2.390625 C 6.300781 -2.742188 6.4375 -3.378906 6.4375 -4.296875 L 6.4375 -9.296875 L 8.859375 -9.296875 L 8.859375 -3.953125 C 8.859375 -2.890625 8.71875 -2.085938 8.4375 -1.546875 C 8.164062 -1.003906 7.71875 -0.566406 7.09375 -0.234375 C 6.476562 0.0859375 5.710938 0.25 4.796875 0.25 C 3.910156 0.25 3.15625 0.0976562 2.53125 -0.203125 C 1.914062 -0.515625 1.460938 -0.945312 1.171875 -1.5 C 0.878906 -2.050781 0.734375 -2.867188 0.734375 -3.953125 L 0.734375 -9.296875 Z M 3.15625 -9.296875 "/></g></g></g><g fill="#000000" fill-opacity="1"><g transform="translate(52.291675, 96.625364)"><g><path d="M 6.484375 -9.296875 L 6.484375 -7.25 L 4.484375 -7.25 L 4.484375 0 L 2.078125 0 L 2.078125 -7.25 L 0.078125 -7.25 L 0.078125 -9.296875 Z M 6.484375 -9.296875 "/></g></g></g><g fill="#000000" fill-opacity="1"><g transform="translate(61.521613, 96.625364)"><g><path d="M 10.609375 -4.8125 C 10.609375 -3.832031 10.382812 -2.945312 9.9375 -2.15625 C 9.488281 -1.375 8.867188 -0.765625 8.078125 -0.328125 C 7.296875 0.0976562 6.445312 0.3125 5.53125 0.3125 C 4.519531 0.3125 3.613281 0.09375 2.8125 -0.34375 C 2.019531 -0.789062 1.40625 -1.398438 0.96875 -2.171875 C 0.539062 -2.941406 0.328125 -3.785156 0.328125 -4.703125 C 0.328125 -5.554688 0.523438 -6.347656 0.921875 -7.078125 C 1.316406 -7.804688 1.925781 -8.410156 2.75 -8.890625 C 3.570312 -9.367188 4.476562 -9.609375 5.46875 -9.609375 C 6.363281 -9.609375 7.207031 -9.398438 8 -8.984375 C 8.800781 -8.566406 9.4375 -7.988281 9.90625 -7.25 C 10.375 -6.519531 10.609375 -5.707031 10.609375 -4.8125 Z M 5.46875 -2.03125 C 6.207031 -2.03125 6.828125 -2.300781 7.328125 -2.84375 C 7.835938 -3.382812 8.09375 -4.039062 8.09375 -4.8125 C 8.09375 -5.445312 7.832031 -6.015625 7.3125 -6.515625 C 6.789062 -7.015625 6.171875 -7.265625 5.453125 -7.265625 C 4.765625 -7.265625 4.160156 -7.019531 3.640625 -6.53125 C 3.117188 -6.050781 2.847656 -5.476562 2.828125 -4.8125 C 2.828125 -4.007812 3.082031 -3.34375 3.59375 -2.8125 C 4.101562 -2.289062 4.726562 -2.03125 5.46875 -2.03125 Z M 5.46875 -2.03125 "/></g></g></g><g fill="#000000" fill-opacity="1"><g transform="translate(75.112996, 96.625364)"><g/></g></g><g fill="#000000" fill-opacity="1"><g transform="translate(82.002035, 96.625364)"><g><path d="M 4.1875 -9.296875 L 6.078125 -4.328125 L 8.078125 -9.296875 L 10.484375 -9.296875 L 11.890625 0 L 9.46875 0 L 8.796875 -5.34375 L 8.765625 -5.34375 L 6.53125 0 L 5.578125 0 L 3.4375 -5.34375 L 3.421875 -5.34375 L 2.640625 0 L 0.234375 0 L 1.8125 -9.296875 Z M 4.1875 -9.296875 "/></g></g></g><g fill="#000000" fill-opacity="1"><g transform="translate(96.776181, 96.625364)"><g><path d="M 6.078125 -9.296875 L 6.078125 -7.25 L 3.203125 -7.25 L 3.203125 -5.703125 L 5.9375 -5.703125 L 5.9375 -3.65625 L 3.203125 -3.65625 L 3.203125 -2.046875 L 6.078125 -2.046875 L 6.078125 0 L 0.78125 0 L 0.78125 -9.296875 Z M 6.078125 -9.296875 "/></g></g></g><g fill="#000000" fill-opacity="1"><g transform="translate(106.215566, 96.625364)"><g><path d="M 7.4375 -6.171875 C 7.195312 -6.503906 6.882812 -6.757812 6.5 -6.9375 C 6.125 -7.113281 5.726562 -7.203125 5.3125 -7.203125 C 4.59375 -7.203125 4 -6.957031 3.53125 -6.46875 C 3.0625 -5.988281 2.828125 -5.375 2.828125 -4.625 C 2.828125 -3.882812 3.0625 -3.273438 3.53125 -2.796875 C 4 -2.328125 4.601562 -2.09375 5.34375 -2.09375 C 5.738281 -2.09375 6.117188 -2.175781 6.484375 -2.34375 C 6.859375 -2.519531 7.175781 -2.765625 7.4375 -3.078125 L 7.4375 -0.1875 C 7.007812 -0.0507812 6.625 0.0507812 6.28125 0.125 C 5.945312 0.207031 5.617188 0.25 5.296875 0.25 C 4.003906 0.25 2.851562 -0.195312 1.84375 -1.09375 C 0.832031 -2 0.328125 -3.179688 0.328125 -4.640625 C 0.328125 -5.535156 0.546875 -6.359375 0.984375 -7.109375 C 1.429688 -7.867188 2.035156 -8.460938 2.796875 -8.890625 C 3.554688 -9.328125 4.367188 -9.546875 5.234375 -9.546875 C 5.921875 -9.546875 6.65625 -9.390625 7.4375 -9.078125 Z M 7.4375 -6.171875 "/></g></g></g><g fill="#000000" fill-opacity="1"><g transform="translate(117.010206, 96.625364)"><g><path d="M 6.171875 -9.296875 L 9.671875 0 L 7.09375 0 L 6.484375 -1.609375 L 3.15625 -1.609375 L 2.515625 0 L -0.046875 0 L 3.53125 -9.296875 Z M 3.828125 -3.46875 L 5.828125 -3.46875 L 4.84375 -6.421875 L 4.8125 -6.421875 Z M 4.796875 -12.828125 L 7.53125 -10.796875 L 6.578125 -9.765625 L 4.796875 -11.125 L 3.03125 -9.765625 L 2.109375 -10.796875 Z M 4.796875 -12.828125 "/></g></g></g><g fill="#000000" fill-opacity="1"><g transform="translate(129.295628, 96.625364)"><g><path d="M 3.203125 -9.296875 L 7.625 -3.609375 L 7.65625 -3.609375 L 7.65625 -9.296875 L 10.078125 -9.296875 L 10.078125 0 L 7.65625 0 L 3.234375 -5.703125 L 3.203125 -5.703125 L 3.203125 0 L 0.78125 0 L 0.78125 -9.296875 Z M 3.203125 -9.296875 "/></g></g></g><g fill="#000000" fill-opacity="1"><g transform="translate(142.813096, 96.625364)"><g><path d="M 3.203125 -9.296875 L 3.203125 0 L 0.78125 0 L 0.78125 -9.296875 Z M 3.203125 -9.296875 "/></g></g></g><g fill="#000000" fill-opacity="1"><g transform="translate(149.468054, 96.625364)"><g><path d="M 7.4375 -6.171875 C 7.195312 -6.503906 6.882812 -6.757812 6.5 -6.9375 C 6.125 -7.113281 5.726562 -7.203125 5.3125 -7.203125 C 4.59375 -7.203125 4 -6.957031 3.53125 -6.46875 C 3.0625 -5.988281 2.828125 -5.375 2.828125 -4.625 C 2.828125 -3.882812 3.0625 -3.273438 3.53125 -2.796875 C 4 -2.328125 4.601562 -2.09375 5.34375 -2.09375 C 5.738281 -2.09375 6.117188 -2.175781 6.484375 -2.34375 C 6.859375 -2.519531 7.175781 -2.765625 7.4375 -3.078125 L 7.4375 -0.1875 C 7.007812 -0.0507812 6.625 0.0507812 6.28125 0.125 C 5.945312 0.207031 5.617188 0.25 5.296875 0.25 C 4.003906 0.25 2.851562 -0.195312 1.84375 -1.09375 C 0.832031 -2 0.328125 -3.179688 0.328125 -4.640625 C 0.328125 -5.535156 0.546875 -6.359375 0.984375 -7.109375 C 1.429688 -7.867188 2.035156 -8.460938 2.796875 -8.890625 C 3.554688 -9.328125 4.367188 -9.546875 5.234375 -9.546875 C 5.921875 -9.546875 6.65625 -9.390625 7.4375 -9.078125 Z M 7.4375 -6.171875 "/></g></g></g><g fill="#000000" fill-opacity="1"><g transform="translate(160.262698, 96.625364)"><g><path d="M 6.171875 -9.296875 L 9.671875 0 L 7.09375 0 L 6.484375 -1.609375 L 3.15625 -1.609375 L 2.515625 0 L -0.046875 0 L 3.53125 -9.296875 Z M 3.828125 -3.46875 L 5.828125 -3.46875 L 4.84375 -6.421875 L 4.8125 -6.421875 Z M 3.828125 -3.46875 "/></g></g></g><g fill="#000000" fill-opacity="1"><g transform="translate(31.34976, 82.483021)"><g><path d="M 26.765625 -0.296875 L 15.203125 -0.296875 L 10.6875 -0.359375 L 0 -0.296875 L 6.59375 -20.21875 L 27.265625 -20.28125 L 28.328125 -23.671875 L 7.703125 -23.5625 L 10.953125 -33.859375 L 36.1875 -33.90625 C 38.457031 -33.90625 39.960938 -33.71875 40.703125 -33.34375 C 41.441406 -32.976562 41.8125 -32.359375 41.8125 -31.484375 C 41.8125 -30.898438 41.695312 -30.222656 41.46875 -29.453125 L 38.375 -19.8125 L 33.09375 -15.71875 L 35.6875 -11.765625 C 35.144531 -10.035156 34.671875 -8.570312 34.265625 -7.375 C 33.859375 -6.175781 33.523438 -5.226562 33.265625 -4.53125 C 33.015625 -3.84375 32.84375 -3.414062 32.75 -3.25 C 32.269531 -2.195312 31.59375 -1.4375 30.71875 -0.96875 C 30.101562 -0.59375 28.785156 -0.367188 26.765625 -0.296875 Z M 14.25 -9.171875 L 23.5625 -9.21875 L 24.734375 -12.671875 L 15.3125 -12.671875 Z M 14.25 -9.171875 "/></g></g></g><g fill="#000000" fill-opacity="1"><g transform="translate(69.210377, 82.483021)"><g><path d="M 0 -0.296875 L 8.875 -27.125 C 9.550781 -29.382812 10.273438 -31.007812 11.046875 -32 C 11.828125 -33 12.828125 -33.585938 14.046875 -33.765625 C 14.847656 -33.890625 15.691406 -33.953125 16.578125 -33.953125 L 43.34375 -33.953125 L 32.234375 -0.359375 L 20.828125 -0.359375 L 24.9375 -12.765625 L 15.453125 -12.71875 L 11.40625 -0.359375 Z M 27.46875 -20.328125 L 28.53125 -23.71875 L 20.578125 -23.671875 C 19.765625 -23.597656 19.242188 -23.34375 19.015625 -22.90625 C 18.773438 -22.632812 18.4375 -21.789062 18 -20.375 Z M 27.46875 -20.328125 "/></g></g></g><g fill="#000000" fill-opacity="1"><g transform="translate(106.61484, 82.483021)"><g><path d="M 37.8125 -0.296875 L 26.515625 -0.296875 L 17.53125 -19.15625 L 11.296875 -0.296875 L 0 -0.359375 C 3.851562 -11.847656 7.265625 -22.472656 10.234375 -32.234375 C 10.441406 -33.347656 11.375 -33.875 13.03125 -33.8125 L 22 -33.703125 L 31.421875 -15.109375 L 37.5625 -33.953125 L 48.90625 -33.90625 Z M 37.8125 -0.296875 "/></g></g></g><g fill="#000000" fill-opacity="1"><g transform="translate(149.898576, 82.483021)"><g><path d="M 11.453125 -0.25 L 0 -0.296875 L 10.890625 -33.859375 L 22.25 -33.765625 C 18.164062 -20.410156 14.566406 -9.238281 11.453125 -0.25 Z M 11.453125 -0.25 "/></g></g></g><g fill="#000000" fill-opacity="1"><g transform="translate(166.168044, 82.483021)"><g><path d="M 36.234375 -0.359375 L 24.484375 -0.453125 L 20.421875 -10.4375 L 11.40625 -0.40625 L 0 -0.453125 L 10.84375 -33.90625 L 22.15625 -33.765625 L 17.328125 -18.8125 L 31.484375 -33.859375 L 42.421875 -33.703125 L 28.328125 -18.90625 Z M 36.234375 -0.359375 "/></g></g></g><g fill="#21446f" fill-opacity="1"><g transform="translate(29.586001, 81.337833)"><g><path d="M 26.765625 -0.296875 L 15.203125 -0.296875 L 10.6875 -0.359375 L 0 -0.296875 L 6.59375 -20.21875 L 27.265625 -20.28125 L 28.328125 -23.671875 L 7.703125 -23.5625 L 10.953125 -33.859375 L 36.1875 -33.90625 C 38.457031 -33.90625 39.960938 -33.71875 40.703125 -33.34375 C 41.441406 -32.976562 41.8125 -32.359375 41.8125 -31.484375 C 41.8125 -30.898438 41.695312 -30.222656 41.46875 -29.453125 L 38.375 -19.8125 L 33.09375 -15.71875 L 35.6875 -11.765625 C 35.144531 -10.035156 34.671875 -8.570312 34.265625 -7.375 C 33.859375 -6.175781 33.523438 -5.226562 33.265625 -4.53125 C 33.015625 -3.84375 32.84375 -3.414062 32.75 -3.25 C 32.269531 -2.195312 31.59375 -1.4375 30.71875 -0.96875 C 30.101562 -0.59375 28.785156 -0.367188 26.765625 -0.296875 Z M 14.25 -9.171875 L 23.5625 -9.21875 L 24.734375 -12.671875 L 15.3125 -12.671875 Z M 14.25 -9.171875 "/></g></g></g><g fill="#21446f" fill-opacity="1"><g transform="translate(67.446619, 81.337833)"><g><path d="M 0 -0.296875 L 8.875 -27.125 C 9.550781 -29.382812 10.273438 -31.007812 11.046875 -32 C 11.828125 -33 12.828125 -33.585938 14.046875 -33.765625 C 14.847656 -33.890625 15.691406 -33.953125 16.578125 -33.953125 L 43.34375 -33.953125 L 32.234375 -0.359375 L 20.828125 -0.359375 L 24.9375 -12.765625 L 15.453125 -12.71875 L 11.40625 -0.359375 Z M 27.46875 -20.328125 L 28.53125 -23.71875 L 20.578125 -23.671875 C 19.765625 -23.597656 19.242188 -23.34375 19.015625 -22.90625 C 18.773438 -22.632812 18.4375 -21.789062 18 -20.375 Z M 27.46875 -20.328125 "/></g></g></g><g fill="#21446f" fill-opacity="1"><g transform="translate(104.851082, 81.337833)"><g><path d="M 37.8125 -0.296875 L 26.515625 -0.296875 L 17.53125 -19.15625 L 11.296875 -0.296875 L 0 -0.359375 C 3.851562 -11.847656 7.265625 -22.472656 10.234375 -32.234375 C 10.441406 -33.347656 11.375 -33.875 13.03125 -33.8125 L 22 -33.703125 L 31.421875 -15.109375 L 37.5625 -33.953125 L 48.90625 -33.90625 Z M 37.8125 -0.296875 "/></g></g></g><g fill="#21446f" fill-opacity="1"><g transform="translate(148.134818, 81.337833)"><g><path d="M 11.453125 -0.25 L 0 -0.296875 L 10.890625 -33.859375 L 22.25 -33.765625 C 18.164062 -20.410156 14.566406 -9.238281 11.453125 -0.25 Z M 11.453125 -0.25 "/></g></g></g><g fill="#21446f" fill-opacity="1"><g transform="translate(164.404286, 81.337833)"><g><path d="M 36.234375 -0.359375 L 24.484375 -0.453125 L 20.421875 -10.4375 L 11.40625 -0.40625 L 0 -0.453125 L 10.84375 -33.90625 L 22.15625 -33.765625 L 17.328125 -18.8125 L 31.484375 -33.859375 L 42.421875 -33.703125 L 28.328125 -18.90625 Z M 36.234375 -0.359375 "/></g></g></g></svg>