<svg xmlns="http://www.w3.org/2000/svg" xmlns:xlink="http://www.w3.org/1999/xlink" width="139" zoomAndPan="magnify" viewBox="0 0 104.25 16.5" height="22" preserveAspectRatio="xMidYMid meet" version="1.0"><defs><clipPath id="f385d811b4"><path d="M 1.167969 0 L 102.351562 0 L 102.351562 16 L 1.167969 16 Z M 1.167969 0 " clip-rule="nonzero"/></clipPath></defs><g clip-path="url(#f385d811b4)"><path fill="#ffc30f" d="M 17.722656 6.441406 L 13.996094 10.078125 C 13.917969 10.152344 13.882812 10.261719 13.902344 10.367188 L 14.78125 15.5 C 14.828125 15.769531 14.542969 15.976562 14.304688 15.847656 L 9.695312 13.425781 C 9.601562 13.375 9.484375 13.375 9.390625 13.425781 L 4.785156 15.847656 C 4.542969 15.976562 4.257812 15.769531 4.304688 15.5 L 5.183594 10.367188 C 5.203125 10.261719 5.167969 10.152344 5.089844 10.078125 L 1.363281 6.441406 C 1.167969 6.25 1.277344 5.917969 1.546875 5.878906 L 6.695312 5.128906 C 6.804688 5.113281 6.894531 5.046875 6.945312 4.949219 L 9.246094 0.28125 C 9.367188 0.0351562 9.71875 0.0351562 9.839844 0.28125 L 12.140625 4.949219 C 12.191406 5.046875 12.28125 5.113281 12.390625 5.128906 L 17.539062 5.878906 C 17.808594 5.917969 17.917969 6.25 17.722656 6.441406 Z M 38.648438 5.878906 L 33.5 5.128906 C 33.390625 5.113281 33.296875 5.046875 33.25 4.949219 L 30.949219 0.28125 C 30.828125 0.0351562 30.476562 0.0351562 30.355469 0.28125 L 28.054688 4.949219 C 28.003906 5.046875 27.914062 5.113281 27.804688 5.128906 L 22.65625 5.878906 C 22.382812 5.917969 22.277344 6.25 22.472656 6.441406 L 26.199219 10.078125 C 26.277344 10.152344 26.3125 10.261719 26.292969 10.367188 L 25.414062 15.5 C 25.367188 15.769531 25.648438 15.976562 25.890625 15.847656 L 30.5 13.425781 C 30.59375 13.375 30.707031 13.375 30.804688 13.425781 L 35.410156 15.847656 C 35.652344 15.976562 35.933594 15.769531 35.890625 15.5 L 35.007812 10.367188 C 34.992188 10.261719 35.027344 10.152344 35.105469 10.078125 L 38.832031 6.441406 C 39.027344 6.25 38.917969 5.917969 38.648438 5.878906 Z M 59.757812 5.878906 L 54.609375 5.128906 C 54.5 5.113281 54.40625 5.046875 54.359375 4.949219 L 52.054688 0.28125 C 51.933594 0.0351562 51.585938 0.0351562 51.464844 0.28125 L 49.160156 4.949219 C 49.113281 5.046875 49.019531 5.113281 48.914062 5.128906 L 43.761719 5.878906 C 43.492188 5.917969 43.386719 6.25 43.582031 6.441406 L 47.308594 10.078125 C 47.386719 10.152344 47.421875 10.261719 47.402344 10.367188 L 46.523438 15.5 C 46.476562 15.769531 46.757812 15.976562 47 15.847656 L 51.605469 13.425781 C 51.703125 13.375 51.816406 13.375 51.914062 13.425781 L 56.519531 15.847656 C 56.761719 15.976562 57.042969 15.769531 56.996094 15.5 L 56.117188 10.367188 C 56.101562 10.261719 56.136719 10.152344 56.210938 10.078125 L 59.9375 6.441406 C 60.132812 6.25 60.027344 5.917969 59.757812 5.878906 Z M 80.867188 5.878906 L 75.714844 5.128906 C 75.609375 5.113281 75.515625 5.046875 75.46875 4.949219 L 73.164062 0.28125 C 73.042969 0.0351562 72.695312 0.0351562 72.574219 0.28125 L 70.269531 4.949219 C 70.222656 5.046875 70.128906 5.113281 70.023438 5.128906 L 64.871094 5.878906 C 64.601562 5.917969 64.496094 6.25 64.691406 6.441406 L 68.417969 10.078125 C 68.496094 10.152344 68.53125 10.261719 68.511719 10.367188 L 67.632812 15.5 C 67.585938 15.769531 67.867188 15.976562 68.109375 15.847656 L 72.714844 13.425781 C 72.8125 13.375 72.925781 13.375 73.023438 13.425781 L 77.628906 15.847656 C 77.871094 15.976562 78.152344 15.769531 78.105469 15.5 L 77.226562 10.367188 C 77.207031 10.261719 77.242188 10.152344 77.320312 10.078125 L 81.046875 6.441406 C 81.242188 6.25 81.136719 5.917969 80.867188 5.878906 Z M 102.160156 6.441406 C 102.355469 6.25 102.246094 5.917969 101.976562 5.878906 L 96.824219 5.128906 C 96.71875 5.113281 96.625 5.046875 96.578125 4.949219 L 94.273438 0.28125 C 94.152344 0.0351562 93.804688 0.0351562 93.683594 0.28125 L 91.378906 4.949219 C 91.332031 5.046875 91.238281 5.113281 91.132812 5.128906 L 85.980469 5.878906 C 85.710938 5.917969 85.605469 6.25 85.800781 6.441406 L 89.527344 10.078125 C 89.605469 10.152344 89.640625 10.261719 89.621094 10.367188 L 88.742188 15.5 C 88.695312 15.769531 88.976562 15.976562 89.21875 15.847656 L 93.824219 13.425781 C 93.921875 13.375 94.035156 13.375 94.132812 13.425781 L 98.738281 15.847656 C 98.980469 15.976562 99.261719 15.769531 99.214844 15.5 L 98.335938 10.367188 C 98.316406 10.261719 98.351562 10.152344 98.429688 10.078125 L 102.15625 6.441406 Z M 102.160156 6.441406 " fill-opacity="1" fill-rule="nonzero"/></g></svg>