<svg xmlns="http://www.w3.org/2000/svg" xmlns:xlink="http://www.w3.org/1999/xlink" width="91" zoomAndPan="magnify" viewBox="0 0 68.25 70.499999" height="94" preserveAspectRatio="xMidYMid meet" version="1.0"><defs><clipPath id="fcc552904a"><path d="M 0 3 L 66 3 L 66 69.128906 L 0 69.128906 Z M 0 3 " clip-rule="nonzero"/></clipPath><clipPath id="ebf11916e9"><path d="M 13 0.136719 L 66.765625 0.136719 L 66.765625 56 L 13 56 Z M 13 0.136719 " clip-rule="nonzero"/></clipPath></defs><g clip-path="url(#fcc552904a)"><path fill="#ff3131" d="M 32.730469 3.992188 C 14.703125 3.992188 0.0273438 18.667969 0.0273438 36.695312 C 0.0273438 54.722656 14.703125 69.398438 32.730469 69.398438 C 50.753906 69.398438 65.433594 54.722656 65.433594 36.695312 C 65.433594 28.902344 62.792969 21.933594 58.316406 16.222656 L 55.238281 19.871094 C 59.140625 24.679688 60.667969 30.015625 60.667969 36.695312 C 60.667969 52.144531 48.175781 64.628906 32.730469 64.628906 C 17.28125 64.628906 4.789062 52.144531 4.789062 36.695312 C 4.789062 21.246094 17.28125 8.753906 32.730469 8.753906 C 37.625 8.753906 41.285156 9.457031 45.28125 11.664062 L 48.207031 7.824219 C 43.527344 5.238281 38.441406 3.992188 32.730469 3.992188 Z M 32.730469 3.992188 " fill-opacity="1" fill-rule="evenodd"/></g><g clip-path="url(#ebf11916e9)"><path fill="#ff3131" d="M 20.625 32.394531 C 21.945312 32.394531 22.941406 33.476562 23.617188 35.640625 C 24.96875 39.699219 25.933594 41.726562 26.507812 41.726562 C 26.949219 41.726562 27.40625 41.386719 27.878906 40.710938 C 37.378906 25.496094 46.171875 13.1875 54.253906 3.789062 C 56.347656 1.351562 59.679688 0.136719 64.246094 0.136719 C 65.328125 0.136719 66.054688 0.238281 66.425781 0.441406 C 66.796875 0.644531 66.984375 0.894531 66.984375 1.199219 C 66.984375 1.675781 66.425781 2.605469 65.308594 3.992188 C 52.257812 19.679688 40.152344 36.25 28.996094 53.695312 C 28.214844 54.914062 26.628906 55.523438 24.226562 55.523438 C 21.792969 55.523438 20.355469 55.421875 19.914062 55.21875 C 18.765625 54.710938 17.414062 52.125 15.859375 47.457031 C 14.097656 42.285156 13.21875 39.039062 13.21875 37.71875 C 13.21875 36.300781 14.402344 34.929688 16.769531 33.609375 C 18.222656 32.800781 19.507812 32.394531 20.625 32.394531 " fill-opacity="1" fill-rule="nonzero"/></g></svg>